<svg id="Calque_1" data-name="Calque 1" xmlns="http://www.w3.org/2000/svg" viewBox="0 0 364.57 227.9"><defs><style>.cls-1{fill:#fff;}</style></defs><title>ButterflyAndCo_Fillaire_fondFonce</title><path class="cls-1" d="M362,128.24l-3.6,6.13c-1.25,2.15-2.48,4.14-3.67,6q-1.77-3.56-3.35-6.33a40.74,40.74,0,0,0-2.77-4.36,10.68,10.68,0,0,0-1.06-1.3,3.36,3.36,0,0,0-.93-.44l-4.07.79v1a4.92,4.92,0,0,1,1.49.17,2.56,2.56,0,0,1,.93.59,17.12,17.12,0,0,1,2,2.51c.43.61,1.08,1.63,2,3.07l1.11,1.83c1,1.65,1.57,2.62,1.73,2.9s.45.86.69,1.36v2q-.06,4.44-.09,4.8a3.81,3.81,0,0,1-.27,1.63,1,1,0,0,1-.58.4,11.43,11.43,0,0,1-2.42.18v1.08c2.1-.08,3.8-.12,5.08-.12s2.93,0,4.76.12v-1.08a11.45,11.45,0,0,1-2.44-.18,1.09,1.09,0,0,1-.62-.45,5.42,5.42,0,0,1-.25-1.9c0-1.46-.05-3-.05-4.48v-1.3a2.85,2.85,0,0,1,.19-1,22.57,22.57,0,0,1,1.62-2.88c1.53-2.53,2.78-4.46,3.73-5.79q2.49-3.43,3.42-4.47v-.46Z"/><path class="cls-1" d="M147.84,65.59l0-.08a145.31,145.31,0,0,0-8.58-15.25C120.06,20.75,91.22,2.5,60.11.19L57.54,0,57.1,2.54A148.07,148.07,0,0,0,60,65.35a111.07,111.07,0,0,0-26-3.17A88.94,88.94,0,0,0,2.8,67.58l-2.8,1,1.2,2.74c13.34,30.6,38.36,57.38,68.64,73.48,3.18,1.69,6.43,3.26,9.71,4.7-11.89,5.57-21.38,13.63-27.1,23.14l-1.63,2.7,2.87,1.33a94.37,94.37,0,0,0,33,8.28c-8.42,12.37-12.27,26.51-10.87,40.34l.25,2.5,2.51,0H80c10.59,0,37.43-2.25,57.89-23.12,14.71-15,19.81-33.26,21.32-40.41a80.89,80.89,0,0,0,1.59-11.92c.58-5.88.87-11.66.87-17.66a177.68,177.68,0,0,0-13.82-69.13ZM152.1,152a90.17,90.17,0,0,0-24.36,5,114.55,114.55,0,0,1-39.55-7.5,87.19,87.19,0,0,1,11-3.09,96.35,96.35,0,0,1,20-2.08q3.83,0,7.61.3A95.29,95.29,0,0,0,152.1,152Zm-22.61-7.1a90.85,90.85,0,0,1,26,6.65A93.08,93.08,0,0,1,129.49,144.92Zm25.79,7.8A85.71,85.71,0,0,1,130.51,157,89.78,89.78,0,0,1,155.28,152.72Zm-27.39,5.16A86.66,86.66,0,0,0,157,153c-8.34,13-24,22.8-43.27,26.89a95.82,95.82,0,0,1-20,2.09H93a73.06,73.06,0,0,1,6.72-7.2A81.56,81.56,0,0,1,127.89,157.88Zm-.94-14a109.81,109.81,0,0,1-46.74-40.62A133.81,133.81,0,0,1,64.73,70,135.51,135.51,0,0,1,90.42,80.5c29.3,15.58,53.57,41.38,66.73,70.89A91.75,91.75,0,0,0,127,143.83ZM79.49,103.67a111,111,0,0,0,45.09,40c-1.81-.1-3.62-.15-5.44-.15A97.4,97.4,0,0,0,99,145.62a87.84,87.84,0,0,0-12,3.46A141,141,0,0,1,71.37,142c-29.5-15.69-53.9-41.73-67-71.49a85.76,85.76,0,0,1,29.66-5,110,110,0,0,1,29.73,4.29A135.3,135.3,0,0,0,79.49,103.67ZM87,150a116.78,116.78,0,0,0,38.53,7.86,82.09,82.09,0,0,0-26.38,16.33A73.44,73.44,0,0,0,91.9,182a92.24,92.24,0,0,1-36.41-8C61.93,163.52,73.07,155.14,87,150Zm5.31,32.85,1.45,0h0a97.54,97.54,0,0,0,20.15-2.1c19.29-4.11,35-13.87,43.56-26.9A79.3,79.3,0,0,1,156,163.7c-1.45,6.87-6.35,24.4-20.46,38.8C116,222.49,90.2,224.64,80,224.64H79C77.63,210.07,82.41,195.31,92.29,182.84Zm65.43-32.27c-13.29-29.48-37.59-55.23-66.9-70.82A136,136,0,0,0,64.43,69,144.42,144.42,0,0,1,60.25,3.47C90.19,5.83,118,23.51,136.49,52a140.3,140.3,0,0,1,8.37,14.88,174.46,174.46,0,0,1,13.57,67.87C158.43,140.15,158.19,145.33,157.72,150.57Z"/><path class="cls-1" d="M168,152.27v-1a9.5,9.5,0,0,0,1.41-.79,1.24,1.24,0,0,0,.23-.55,22.73,22.73,0,0,0,.21-2.61c.07-1.33.1-2.35.1-3.05V132c0-1.34,0-2.92-.13-4.72a7.14,7.14,0,0,0-.28-2.11.84.84,0,0,0-.44-.39,8.77,8.77,0,0,0-2.81-.31v-1.29c.46,0,1,0,1.71,0l4.26.1,7.55-.18a13.51,13.51,0,0,1,4.61.61,5.17,5.17,0,0,1,2.54,2,5.46,5.46,0,0,1,.91,3.08,6.06,6.06,0,0,1-.54,2.54,6.76,6.76,0,0,1-1.46,2.06,7.86,7.86,0,0,1-2,1.41,14.87,14.87,0,0,1-2.92,1,20.07,20.07,0,0,1,3.87.67,6.41,6.41,0,0,1,2.47,1.31,5.53,5.53,0,0,1,1.51,2.12,7.39,7.39,0,0,1,.52,2.8,8.36,8.36,0,0,1-1.84,5.34,10.87,10.87,0,0,1-4.73,3.42,14.21,14.21,0,0,1-5.1.82l-6-.16C171,152.11,169.8,152.16,168,152.27Zm5.86-17.06c.78,0,1.46.06,2,.06a15.2,15.2,0,0,0,3.92-.39,5.85,5.85,0,0,0,2.14-1,5.09,5.09,0,0,0,1.26-1.72,6.09,6.09,0,0,0,.5-2.54,4.21,4.21,0,0,0-1.63-3.7,8.34,8.34,0,0,0-4.76-1.13,17.27,17.27,0,0,0-3.29.3,51.49,51.49,0,0,0-.19,5.27Zm.06,14.95a14.23,14.23,0,0,0,3.24.37,9.85,9.85,0,0,0,4.36-.83,5.83,5.83,0,0,0,2.55-2.51,8.2,8.2,0,0,0,.89-3.86,7.18,7.18,0,0,0-.84-3.62,5.13,5.13,0,0,0-2.51-2.18,15.36,15.36,0,0,0-5.5-.7c-.58,0-1.33,0-2.25.08v7.77C173.86,145.44,173.88,147.26,173.92,150.16Z"/><path class="cls-1" d="M191.91,129.35v-1.08c1.83.09,3.54.13,5.11.13s3.19,0,4.77-.13v1.08a11.6,11.6,0,0,0-2.44.18,1,1,0,0,0-.59.39,4.28,4.28,0,0,0-.27,1.64c0,.23,0,1.83-.07,4.8v6.25a15.5,15.5,0,0,0,.47,4.79,4.42,4.42,0,0,0,1.48,1.92,6.07,6.07,0,0,0,2.09.92,11.64,11.64,0,0,0,2.94.34,11.14,11.14,0,0,0,3.36-.46A6,6,0,0,0,211,149a4.44,4.44,0,0,0,1.09-1.5,7.82,7.82,0,0,0,.53-2.27,36.1,36.1,0,0,0,.16-3.66v-5.2c0-1.53,0-3-.07-4.49a5.08,5.08,0,0,0-.23-1.9,1.11,1.11,0,0,0-.63-.44,11.4,11.4,0,0,0-2.43-.18v-1.08c1.86.09,3.21.13,4.07.13s2.18,0,4.2-.13v1.08a11.45,11.45,0,0,0-2.44.18,1.19,1.19,0,0,0-.6.39,4.42,4.42,0,0,0-.25,1.64c0,.23,0,1.83-.07,4.8V142a19.9,19.9,0,0,1-.58,5.83,6.62,6.62,0,0,1-2.14,2.92,8.28,8.28,0,0,1-3,1.47,14.81,14.81,0,0,1-4.07.52,14.46,14.46,0,0,1-4.51-.62,7.05,7.05,0,0,1-2.9-1.62,5.59,5.59,0,0,1-1.37-2.05,15.79,15.79,0,0,1-.47-4.64v-7.47c0-1.53,0-3-.05-4.49A5.37,5.37,0,0,0,195,130a1.11,1.11,0,0,0-.63-.44A11.25,11.25,0,0,0,191.91,129.35Z"/><path class="cls-1" d="M220.25,133.86H219.2c0-2.69-.07-4.55-.17-5.59l5.78.17c2.13,0,3.54.07,4.25.07s2.54,0,5.32-.11c2,0,3.49-.09,4.41-.13-.13,1.26-.22,3.12-.27,5.59h-1.08l-.13-1.62c-.09-1-.15-1.54-.19-1.67a.56.56,0,0,0-.14-.29.73.73,0,0,0-.28-.14c-.16,0-.72-.07-1.69-.13s-1.73-.09-2.3-.09h-2.06c-.11,1.09-.17,2.54-.17,4.38v9.88c0,1.53,0,3,.05,4.48a5.54,5.54,0,0,0,.25,1.91,1.12,1.12,0,0,0,.62.44,11.45,11.45,0,0,0,2.44.18v1.08c-2-.09-3.53-.13-4.54-.13-.44,0-2.2,0-5.27.13v-1.08a11.57,11.57,0,0,0,2.45-.18,1,1,0,0,0,.59-.39,3.91,3.91,0,0,0,.27-1.64c0-.24,0-1.84.07-4.8v-9.85c0-.47,0-1,0-1.55l-.11-2.86h-2.51a28.45,28.45,0,0,0-3.47.17.77.77,0,0,0-.52.22,6.08,6.08,0,0,0-.34,1.84Z"/><path class="cls-1" d="M241.45,133.86h-1c0-2.69-.07-4.55-.17-5.59l5.78.17c2.12,0,3.54.07,4.25.07s2.54,0,5.32-.11c2,0,3.49-.09,4.41-.13-.13,1.26-.22,3.12-.27,5.59h-1.08l-.14-1.62c-.08-1-.15-1.54-.18-1.67a.56.56,0,0,0-.14-.29.81.81,0,0,0-.28-.14c-.16,0-.72-.07-1.69-.13s-1.74-.09-2.3-.09h-2.06c-.11,1.09-.17,2.54-.17,4.38v9.88c0,1.53,0,3,0,4.48a5.54,5.54,0,0,0,.25,1.91,1.09,1.09,0,0,0,.62.44,11.45,11.45,0,0,0,2.44.18v1.08c-2-.09-3.53-.13-4.54-.13-.44,0-2.2,0-5.27.13v-1.08a11.57,11.57,0,0,0,2.45-.18,1,1,0,0,0,.59-.39,3.91,3.91,0,0,0,.27-1.64c0-.24,0-1.84.07-4.8v-9.85c0-.47,0-1,0-1.55l-.1-2.86H246a28.45,28.45,0,0,0-3.47.17.77.77,0,0,0-.52.22,5.76,5.76,0,0,0-.34,1.84Z"/><path class="cls-1" d="M261.9,152.27v-1.06a6.87,6.87,0,0,0,2.33-.27.67.67,0,0,0,.34-.32,6.27,6.27,0,0,0,.24-1.78c.06-1.48.1-2.77.1-3.85v-8.63c0-1.53,0-3-.05-4.49a5.37,5.37,0,0,0-.25-1.9,1.12,1.12,0,0,0-.62-.44,11.45,11.45,0,0,0-2.44-.18v-1.08l4.81.1,5.1-.08c2.44,0,4.22,0,5.32,0a26.25,26.25,0,0,1,3.16.18,13.73,13.73,0,0,0-.37,1.67c0,.11-.13,1.28-.31,3.52H278.2a17.92,17.92,0,0,0-.22-3.14,7.64,7.64,0,0,0-2-.53,30.25,30.25,0,0,0-3.79-.24c-.27,0-.87,0-1.81.07l-2,.12c0,1.25-.08,2.42-.11,3.51l-.06,5.71c1.31.07,2.52.1,3.63.1a27.86,27.86,0,0,0,3.43-.18,1.07,1.07,0,0,0,.69-.27,4.16,4.16,0,0,0,.27-1.39l.1-1.18h1v.32l-.08,3.52.08,3.93h-1.18l-.05-1.15a3.77,3.77,0,0,0-.23-1.55,1.07,1.07,0,0,0-.73-.42,21.21,21.21,0,0,0-3.73-.21q-1.14,0-3.21.09c-.06,1.12-.09,2.8-.09,5s0,3.67.09,4.75c1.62.13,3.44.19,5.45.19a23.6,23.6,0,0,0,3.06-.14,6.88,6.88,0,0,0,1.69-.46,10.35,10.35,0,0,0,.4-1.41c.25-1,.41-1.76.49-2.27h1.12a46.5,46.5,0,0,0-.44,5.66,23.66,23.66,0,0,1-3.53.22l-10.08-.13Z"/><path class="cls-1" d="M282.59,129.35v-1.08l2,0,3.24.08c.65,0,1.64,0,3-.06,1.76-.07,2.78-.1,3.06-.1a14.07,14.07,0,0,1,4.7.57,4.56,4.56,0,0,1,2.29,1.87,5.19,5.19,0,0,1,.81,2.81,5.86,5.86,0,0,1-.76,2.82,6.35,6.35,0,0,1-2.2,2.33,11.54,11.54,0,0,1-3.76,1.44c.28.39.95,1.27,2,2.63l4.25,5.61c1.22,1.56,1.93,2.44,2.13,2.62a1.14,1.14,0,0,0,.3.17,4.94,4.94,0,0,0,1.12.08v1.08c-.86-.07-1.61-.1-2.25-.1s-1.48,0-2.45.1q-1.1-1.26-3.68-5c-1-1.36-1.8-2.5-2.53-3.41-1.19-1.51-2.31-2.88-3.38-4.1l.17-.51c.58,0,1,0,1.33,0a6.66,6.66,0,0,0,4.66-1.45,5,5,0,0,0,1.59-3.84,4.19,4.19,0,0,0-1.37-3.3,6,6,0,0,0-4.13-1.22,11.4,11.4,0,0,0-3.42.52c0,.61-.07,1.18-.1,1.71,0,.15,0,1.79-.12,4.91v7.5c0,1.53,0,3,.07,4.48a5.24,5.24,0,0,0,.23,1.91,1.11,1.11,0,0,0,.63.44,11.6,11.6,0,0,0,2.44.18v1.08c-1.6-.09-3.07-.13-4.41-.13-1.08,0-2.9,0-5.46.13v-1.08A11.4,11.4,0,0,0,285,151a1.1,1.1,0,0,0,.61-.39,4.21,4.21,0,0,0,.25-1.64c0-.24,0-1.84.07-4.8v-7.82c0-1.53,0-3-.05-4.49a5.22,5.22,0,0,0-.24-1.9,1.11,1.11,0,0,0-.63-.44A11.37,11.37,0,0,0,282.59,129.35Z"/><path class="cls-1" d="M305.68,129.35v-1.08c1.71.07,3.16.1,4.36.1.84,0,2.36,0,4.54-.07s3.66-.06,4.43-.06,1.57,0,2.25,0,1.3.05,1.85.09a23.82,23.82,0,0,0-.54,5.12h-1.06a20.14,20.14,0,0,0-.42-3.14,10.67,10.67,0,0,0-2.17-.45,29.37,29.37,0,0,0-3-.14,33.13,33.13,0,0,0-3.53.2c-.07.61-.12,1.18-.14,1.71,0,.3,0,1.59-.08,3.87v3.75c1.26,0,2.37,0,3.34,0a22,22,0,0,0,3.43-.22,1,1,0,0,0,.63-.28,4.83,4.83,0,0,0,.32-1.43l.13-1h1.07l-.12,3.85.12,4.14H320l-.12-1.08a11.3,11.3,0,0,0-.27-2,.94.94,0,0,0-.64-.36,25.32,25.32,0,0,0-4.36-.22c-.8,0-1.62,0-2.46.07v3.41c0,1.53,0,3,.07,4.48a5.34,5.34,0,0,0,.22,1.91,1.1,1.1,0,0,0,.64.44,11.4,11.4,0,0,0,2.43.18v1.08c-1.43-.09-2.86-.13-4.28-.13-1.27,0-3.13,0-5.57.13v-1.08a11.4,11.4,0,0,0,2.43-.18,1.1,1.1,0,0,0,.61-.39A4.35,4.35,0,0,0,309,149q0-.36.06-4.8v-7.82c0-1.53,0-3-.05-4.49a5.22,5.22,0,0,0-.24-1.9,1.11,1.11,0,0,0-.63-.44A11.37,11.37,0,0,0,305.68,129.35Z"/><path class="cls-1" d="M326.32,152.27v-.88a5.52,5.52,0,0,0,1.34-.77.81.81,0,0,0,.23-.39,9.25,9.25,0,0,0,.2-2c.05-1.54.07-2.46.07-2.75v-9.09c0-1.53,0-3-.05-4.49a5.22,5.22,0,0,0-.24-1.9,1.11,1.11,0,0,0-.63-.44,11.45,11.45,0,0,0-2.44-.18v-1.08c2.75.09,4.45.13,5.1.13s2.34,0,4.85-.13v1.08a11.45,11.45,0,0,0-2.44.18,1.1,1.1,0,0,0-.6.39,4.21,4.21,0,0,0-.25,1.64c0,.23,0,1.83-.07,4.8v11.35c0,1.18,0,2.15.07,2.89q1.92.12,3.81.12a25.25,25.25,0,0,0,6.68-.61,8.48,8.48,0,0,0,.38-1.17l.68-2.8h1.13q-.37,2.52-.72,5.91a10.49,10.49,0,0,1-1.1.17c-.59,0-1.49.05-2.71.05l-10-.13C328.53,152.14,327.44,152.18,326.32,152.27Z"/><path class="cls-1" d="M342.52,129.76v-1l4.07-.8a3.32,3.32,0,0,1,.93.45,10.24,10.24,0,0,1,1.06,1.29,41.32,41.32,0,0,1,2.77,4.38q1.57,2.76,3.35,6.33,1.79-2.76,3.66-6l3.6-6.13h2.59v.46q-.93,1-3.42,4.47c-.95,1.33-2.2,3.26-3.73,5.79a24.15,24.15,0,0,0-1.62,2.88,3.25,3.25,0,0,0-.19,1v1.3c0,1.53,0,3,.05,4.48a5.54,5.54,0,0,0,.25,1.91,1.12,1.12,0,0,0,.62.44,11.45,11.45,0,0,0,2.44.18v1.08c-1.83-.09-3.42-.13-4.76-.13s-3,0-5.08.13v-1.08a11.4,11.4,0,0,0,2.43-.18,1,1,0,0,0,.59-.39,3.91,3.91,0,0,0,.27-1.64c0-.24,0-1.84.07-4.8v-2c-.24-.5-.47-1-.69-1.36s-.74-1.25-1.73-2.91l-1.11-1.82c-.88-1.44-1.53-2.47-2-3.08a15.93,15.93,0,0,0-2.05-2.51,2.48,2.48,0,0,0-.92-.6A4.94,4.94,0,0,0,342.52,129.76Z"/><path class="cls-1" d="M208.69,177c-1,.7-1.58,1.13-1.76,1.28s-.88.69-1.77,1.41a7,7,0,0,1-1.43.15,7.81,7.81,0,0,1-3.06-.53,15.65,15.65,0,0,1-4.41-2.65,18.61,18.61,0,0,1-4.38,2.55,11.71,11.71,0,0,1-4,.65,8.94,8.94,0,0,1-4.64-1.13,7.15,7.15,0,0,1-2.86-3.08,8.75,8.75,0,0,1-1-3.89,8,8,0,0,1,1.6-5,14.59,14.59,0,0,1,4.76-3.88,14.05,14.05,0,0,1-1.22-5.37,5.72,5.72,0,0,1,.49-2.32,4.18,4.18,0,0,1,.56-1.09c.15-.18.86-.81,2.11-1.89a10.13,10.13,0,0,1,1.78-1.26,4.36,4.36,0,0,1,1.89-.4,3.64,3.64,0,0,1,2.72,1,3.9,3.9,0,0,1,1,2.82,7.35,7.35,0,0,1-1.39,4,16.1,16.1,0,0,1-4.5,4.21,34.17,34.17,0,0,0,3.86,5.82,31.14,31.14,0,0,0,4.52,4.73,7.35,7.35,0,0,0,2.07-4.93,5.08,5.08,0,0,0-.45-2.36,1.19,1.19,0,0,0-.85-.65,24,24,0,0,0-3.22-.14l-.18-.27,1.32-1.92a25.44,25.44,0,0,0,3.32.18c.85,0,2.51,0,5-.14.68,0,1.91,0,3.66,0a21,21,0,0,0-.46,2.83,31.62,31.62,0,0,0-5.82-.4,6.67,6.67,0,0,1,.25,1.76,8.05,8.05,0,0,1-.8,3.51,14.07,14.07,0,0,1-2.58,3.52,12.48,12.48,0,0,0,7.26,2.65,3,3,0,0,0,1-.13,10.15,10.15,0,0,0,1.4-.7Zm-13.75-1.38q-2.72-2.91-3.69-4.09c-.89-1.06-1.7-2.13-2.43-3.19s-1.53-2.35-2.38-3.85a9.49,9.49,0,0,0-2.66,2.7,6.1,6.1,0,0,0-.81,3.17,7.21,7.21,0,0,0,1,3.52,6.78,6.78,0,0,0,2.56,2.69,6.67,6.67,0,0,0,3.39.94A8.32,8.32,0,0,0,194.94,175.63Zm-6.42-14.37a10.44,10.44,0,0,0,2.83-2.89,5.54,5.54,0,0,0,1-2.88,2.8,2.8,0,0,0-.67-1.91,2,2,0,0,0-1.52-.76,2.83,2.83,0,0,0-1.38.35,2.33,2.33,0,0,0-1,1.14,5.29,5.29,0,0,0-.33,2.05A15.87,15.87,0,0,0,188.52,161.26Z"/><path class="cls-1" d="M239,176.28l-.66,1.57a17.54,17.54,0,0,1-3.87,1.45,18.4,18.4,0,0,1-4.12.44,17.59,17.59,0,0,1-4.87-.65,12.63,12.63,0,0,1-3.92-1.89,11.72,11.72,0,0,1-2.75-2.74,12,12,0,0,1-1.62-3.31,13.05,13.05,0,0,1-.56-3.91,11.75,11.75,0,0,1,3.76-8.92q3.76-3.54,10.26-3.54a20.93,20.93,0,0,1,2.85.18,25.6,25.6,0,0,1,3.19.67c1.26.33,2,.53,2.31.59a10,10,0,0,0-.56,1.82,24.48,24.48,0,0,0-.37,3.33H237v-2a3,3,0,0,0-1.84-2.46,11.49,11.49,0,0,0-4.87-.81,12.88,12.88,0,0,0-4.07.61,8,8,0,0,0-2.95,1.84,9.69,9.69,0,0,0-2.08,3.2,12.76,12.76,0,0,0-.83,4.85A10.71,10.71,0,0,0,231.71,178a13.69,13.69,0,0,0,4.29-.64,10,10,0,0,0,2.69-1.38Z"/><path class="cls-1" d="M240.77,167.43a14.53,14.53,0,0,1,.8-4.93,10.45,10.45,0,0,1,2.66-4.07,12.47,12.47,0,0,1,4.2-2.73,14.76,14.76,0,0,1,5.38-.92,15.26,15.26,0,0,1,5.06.79,10.88,10.88,0,0,1,3.74,2.07,10.5,10.5,0,0,1,2.31,2.83,10.69,10.69,0,0,1,1,2.7,13.7,13.7,0,0,1,.38,3.33A12.79,12.79,0,0,1,262.5,176a13.18,13.18,0,0,1-9.66,3.78,14.15,14.15,0,0,1-5-.86,10.17,10.17,0,0,1-3.88-2.56,11.32,11.32,0,0,1-2.42-4.12A14.8,14.8,0,0,1,240.77,167.43Zm3.51-1.4a17.39,17.39,0,0,0,.32,3.26,15.55,15.55,0,0,0,.81,2.85,10.68,10.68,0,0,0,2.12,3.41,8.35,8.35,0,0,0,2.92,2,9.39,9.39,0,0,0,3.58.65,8.37,8.37,0,0,0,4.72-1.32,8,8,0,0,0,3-3.74,14.45,14.45,0,0,0,1-5.54,16.58,16.58,0,0,0-.71-5,10.32,10.32,0,0,0-1.16-2.51,8.79,8.79,0,0,0-1.73-2,8.56,8.56,0,0,0-2.61-1.41,10.31,10.31,0,0,0-3.47-.57,9.06,9.06,0,0,0-4.71,1.19,7.48,7.48,0,0,0-3,3.48A12.38,12.38,0,0,0,244.28,166Z"/><path class="cls-1" d="M268.35,175.4a2,2,0,0,1,1.43.59,2,2,0,0,1,.58,1.44,2,2,0,0,1-2,2,2,2,0,0,1-1.44-.59,2,2,0,0,1-.59-1.42,2,2,0,0,1,2-2Z"/></svg>