<svg xmlns="http://www.w3.org/2000/svg" xmlns:xlink="http://www.w3.org/1999/xlink" viewBox="0 0 361.18 222.05"><defs><style>.cls-1{isolation:isolate;}.cls-2{fill:#eb155d;}.cls-3{fill:#f5a81c;}.cls-10,.cls-4{mix-blend-mode:multiply;}.cls-4{fill:url(#Dégradé_sans_nom_5);}.cls-5{fill:#f49150;}.cls-6{fill:#2182c6;}.cls-7{fill:#70c047;}.cls-8{fill:url(#Dégradé_sans_nom_4);}.cls-9{fill:#969925;}.cls-10{fill:url(#Dégradé_sans_nom_5-2);}.cls-11{fill:url(#Dégradé_sans_nom_4-2);}.cls-12{fill:#a17b2c;}.cls-13{fill:url(#Dégradé_sans_nom_2);}.cls-14{fill:url(#Dégradé_sans_nom_53);}.cls-15{fill:url(#Dégradé_sans_nom_4-3);}.cls-16{fill:url(#Dégradé_sans_nom_2-2);}.cls-17{fill:#4d875b;}.cls-18{fill:#424242;}</style><linearGradient id="Dégradé_sans_nom_5" x1="68.31" y1="214.59" x2="146.95" y2="140.96" gradientUnits="userSpaceOnUse"><stop offset="0" stop-color="#eb155d"/><stop offset="0.05" stop-color="#eb155d" stop-opacity="0.97"/><stop offset="0.48" stop-color="#eb155d" stop-opacity="0.77"/><stop offset="0.81" stop-color="#eb155d" stop-opacity="0.65"/><stop offset="1" stop-color="#eb155d" stop-opacity="0.6"/></linearGradient><linearGradient id="Dégradé_sans_nom_4" x1="-359.43" y1="-2678.81" x2="-359.43" y2="-2573.39" gradientTransform="matrix(-0.17, -0.8, 0.98, -0.21, 2608.14, -680.83)" gradientUnits="userSpaceOnUse"><stop offset="0" stop-color="#f5a81c"/><stop offset="0.08" stop-color="#f5a81c" stop-opacity="0.96"/><stop offset="0.5" stop-color="#f5a81c" stop-opacity="0.76"/><stop offset="0.82" stop-color="#f5a81c" stop-opacity="0.64"/><stop offset="1" stop-color="#f5a81c" stop-opacity="0.6"/></linearGradient><linearGradient id="Dégradé_sans_nom_5-2" x1="70.07" y1="216.47" x2="148.7" y2="142.84" xlink:href="#Dégradé_sans_nom_5"/><linearGradient id="Dégradé_sans_nom_4-2" x1="-370.01" y1="-2678.81" x2="-370.01" y2="-2573.39" xlink:href="#Dégradé_sans_nom_4"/><linearGradient id="Dégradé_sans_nom_2" x1="42.98" y1="9.69" x2="136.98" y2="157.69" gradientUnits="userSpaceOnUse"><stop offset="0" stop-color="#2182c6"/><stop offset="0.41" stop-color="#2182c6" stop-opacity="0.8"/><stop offset="0.79" stop-color="#2182c6" stop-opacity="0.66"/><stop offset="1" stop-color="#2182c6" stop-opacity="0.6"/></linearGradient><linearGradient id="Dégradé_sans_nom_53" x1="7.25" y1="55.13" x2="160.25" y2="140.13" gradientUnits="userSpaceOnUse"><stop offset="0" stop-color="#257851"/><stop offset="1" stop-color="#50997b"/></linearGradient><linearGradient id="Dégradé_sans_nom_4-3" x1="-361.9" y1="-2678.81" x2="-361.9" y2="-2573.39" xlink:href="#Dégradé_sans_nom_4"/><linearGradient id="Dégradé_sans_nom_2-2" x1="49.78" y1="5.37" x2="143.78" y2="153.37" xlink:href="#Dégradé_sans_nom_2"/></defs><title>ButterflyAcademy_CouleursPlates_fondClair</title><g class="cls-1"><g id="Calque_1" data-name="Calque 1"><path class="cls-2" d="M110,177.32a96.33,96.33,0,0,1-21.69,2.06c-10.45,13.08-15,28.25-13.5,42.66,5.31.1,35.25.21,57.28-22.26,15.24-15.54,19.67-34.73,20.57-39a76.14,76.14,0,0,0,1.54-11.56C146.3,162.34,130.66,172.93,110,177.32Z"/><path class="cls-3" d="M95.63,171.47a81.85,81.85,0,0,1,28.37-17,114.81,114.81,0,0,1-40.84-7.92c-14.65,5.39-25.8,14.19-32.07,24.61a92.61,92.61,0,0,0,37.22,8.25A73.85,73.85,0,0,1,95.63,171.47Z"/><path class="cls-4" d="M124,154.44a81.85,81.85,0,0,0-28.37,17,73.85,73.85,0,0,0-7.32,7.91A96.33,96.33,0,0,0,110,177.32c20.66-4.39,36.3-15,44.2-28.11A86.07,86.07,0,0,1,124,154.44Z"/><path class="cls-5" d="M124,154.44a81.85,81.85,0,0,0-28.37,17,73.85,73.85,0,0,0-7.32,7.91A96.33,96.33,0,0,0,110,177.32c20.66-4.39,36.3-15,44.2-28.11A86.07,86.07,0,0,1,124,154.44Z"/><path class="cls-6" d="M141.43,63.76l.06,0a140.76,140.76,0,0,0-8.44-14.93C113.64,18.9,85.2,2.16,56.1,0a145,145,0,0,0,4.17,66.33A134.73,134.73,0,0,1,86.82,77.11c30.9,16.42,54.78,43.21,67.38,72.1.57-5.76.86-11.52.86-17.44A175.34,175.34,0,0,0,141.43,63.76Z"/><path class="cls-7" d="M123,141.24c-18-8-34.54-21.71-46.94-40.82A134.56,134.56,0,0,1,60.27,66.33c-21.81-6.18-42.8-5.64-60.27.89,12.61,28.9,36.48,55.68,67.38,72.11a142.15,142.15,0,0,0,15.78,7.19A88.14,88.14,0,0,1,95.28,143,96.73,96.73,0,0,1,123,141.24Z"/><path class="cls-8" d="M95.28,143a88.14,88.14,0,0,0-12.12,3.5A114.81,114.81,0,0,0,124,154.44a90.41,90.41,0,0,1,30.2-5.23,94,94,0,0,1-31.2-8A96.73,96.73,0,0,0,95.28,143Z"/><path class="cls-9" d="M95.28,143a88.14,88.14,0,0,0-12.12,3.5A114.81,114.81,0,0,0,124,154.44a90.41,90.41,0,0,1,30.2-5.23,94,94,0,0,1-31.2-8A96.73,96.73,0,0,0,95.28,143Z"/><path class="cls-10" d="M154.2,149.21a90.41,90.41,0,0,0-30.2,5.23A86.07,86.07,0,0,0,154.2,149.21Z"/><path class="cls-11" d="M154.2,149.21a90.41,90.41,0,0,0-30.2,5.23A86.07,86.07,0,0,0,154.2,149.21Z"/><path class="cls-12" d="M154.2,149.21a90.41,90.41,0,0,0-30.2,5.23A86.07,86.07,0,0,0,154.2,149.21Z"/><path class="cls-13" d="M86.82,77.11A134.73,134.73,0,0,0,60.27,66.33a134.56,134.56,0,0,0,15.79,34.09c12.4,19.11,29,32.83,46.94,40.82a91.39,91.39,0,0,1,31.2,8C141.6,120.32,117.72,93.53,86.82,77.11Z"/><path class="cls-14" d="M86.82,77.11A134.73,134.73,0,0,0,60.27,66.33a134.56,134.56,0,0,0,15.79,34.09c12.4,19.11,29,32.83,46.94,40.82a91.39,91.39,0,0,1,31.2,8C141.6,120.32,117.72,93.53,86.82,77.11Z"/><path class="cls-15" d="M154.2,149.21a91.39,91.39,0,0,0-31.2-8A94,94,0,0,0,154.2,149.21Z"/><path class="cls-16" d="M154.2,149.21a91.39,91.39,0,0,0-31.2-8A94,94,0,0,0,154.2,149.21Z"/><path class="cls-17" d="M154.2,149.21a91.39,91.39,0,0,0-31.2-8A94,94,0,0,0,154.2,149.21Z"/><path class="cls-18" d="M164.63,149.25v-1a8.93,8.93,0,0,0,1.42-.79,1.15,1.15,0,0,0,.22-.54,22.18,22.18,0,0,0,.22-2.62c.06-1.33.09-2.35.09-3V128.93c0-1.34,0-2.91-.12-4.72a7.44,7.44,0,0,0-.29-2.11.86.86,0,0,0-.43-.39,9.13,9.13,0,0,0-2.81-.31v-1.29c.45,0,1,0,1.7,0l4.27.1,7.54-.18a13.58,13.58,0,0,1,4.62.61,5.14,5.14,0,0,1,2.53,2,5.46,5.46,0,0,1,.91,3.08,6,6,0,0,1-.54,2.54,6.48,6.48,0,0,1-1.46,2.06,7.73,7.73,0,0,1-2,1.42,15.37,15.37,0,0,1-2.92,1,20.34,20.34,0,0,1,3.88.67,6.48,6.48,0,0,1,2.47,1.31,5.71,5.71,0,0,1,1.51,2.13,7.3,7.3,0,0,1,.51,2.79,8.33,8.33,0,0,1-1.84,5.35,11,11,0,0,1-4.72,3.41,14.3,14.3,0,0,1-5.11.82l-5.95-.16C167.66,149.09,166.44,149.14,164.63,149.25Zm5.87-17.06c.77,0,1.46.06,2,.06a15.2,15.2,0,0,0,3.92-.39,5.77,5.77,0,0,0,2.14-1,4.75,4.75,0,0,0,1.26-1.72,6.06,6.06,0,0,0,.5-2.54,4.17,4.17,0,0,0-1.63-3.69,8.25,8.25,0,0,0-4.75-1.14,16.66,16.66,0,0,0-3.3.31c-.12,1.13-.18,2.88-.18,5.26Zm.06,14.95a13.55,13.55,0,0,0,3.23.37,9.82,9.82,0,0,0,4.36-.83,5.68,5.68,0,0,0,2.55-2.51,8.17,8.17,0,0,0,.89-3.86,7.21,7.21,0,0,0-.84-3.62,5,5,0,0,0-2.51-2.17,15.29,15.29,0,0,0-5.49-.71c-.59,0-1.34,0-2.25.08v7.77C170.5,142.42,170.52,144.24,170.56,147.14Z"/><path class="cls-18" d="M188.54,126.33v-1.08c1.83.09,3.54.14,5.12.14s3.18,0,4.76-.14v1.08a12.17,12.17,0,0,0-2.43.18,1,1,0,0,0-.59.4,3.84,3.84,0,0,0-.27,1.64c0,.22,0,1.82-.07,4.79v6.25a15.61,15.61,0,0,0,.46,4.79A4.42,4.42,0,0,0,197,146.3a6.22,6.22,0,0,0,2.1.92,11.5,11.5,0,0,0,2.93.34,11.21,11.21,0,0,0,3.37-.46,6.08,6.08,0,0,0,2.2-1.13,4.61,4.61,0,0,0,1.1-1.5,8.21,8.21,0,0,0,.52-2.27,33.39,33.39,0,0,0,.16-3.66v-5.2c0-1.53,0-3-.07-4.49a5.48,5.48,0,0,0-.22-1.9,1.15,1.15,0,0,0-.64-.44,12.17,12.17,0,0,0-2.43-.18v-1.08c1.86.09,3.22.14,4.07.14s2.18,0,4.21-.14v1.08a12.13,12.13,0,0,0-2.44.18,1.11,1.11,0,0,0-.6.4,4.26,4.26,0,0,0-.26,1.64c0,.22,0,1.82-.06,4.79V139a19.81,19.81,0,0,1-.59,5.83,6.61,6.61,0,0,1-2.13,2.92,8.41,8.41,0,0,1-3,1.47,16.56,16.56,0,0,1-8.57-.09,7.1,7.1,0,0,1-2.91-1.62,5.74,5.74,0,0,1-1.37-2.06,16.14,16.14,0,0,1-.47-4.64v-7.47c0-1.53,0-3-.05-4.49a5.17,5.17,0,0,0-.25-1.9,1.13,1.13,0,0,0-.62-.44A12.22,12.22,0,0,0,188.54,126.33Z"/><path class="cls-18" d="M216.88,130.84h-1c0-2.69-.06-4.55-.17-5.59,1.23,0,3.16.1,5.78.17,2.13,0,3.55.07,4.26.07s2.54,0,5.32-.1c2,0,3.48-.09,4.41-.14-.14,1.26-.23,3.13-.27,5.59h-1.08l-.14-1.62c-.09-1-.15-1.54-.19-1.67a.56.56,0,0,0-.14-.29.66.66,0,0,0-.28-.13c-.16,0-.72-.08-1.69-.14s-1.73-.08-2.29-.08h-2.07c-.11,1.08-.16,2.54-.16,4.37v9.88c0,1.53,0,3,0,4.48a5.34,5.34,0,0,0,.24,1.91,1.11,1.11,0,0,0,.63.44,11.37,11.37,0,0,0,2.44.18v1.08c-2-.09-3.53-.13-4.55-.13-.44,0-2.19,0-5.27.13v-1.08a11.57,11.57,0,0,0,2.45-.18,1,1,0,0,0,.59-.39A3.87,3.87,0,0,0,224,146c0-.24,0-1.84.07-4.8v-9.85c0-.47,0-1,0-1.55l-.1-2.85h-2.52a26.38,26.38,0,0,0-3.46.17.71.71,0,0,0-.53.22,6.14,6.14,0,0,0-.33,1.84Z"/><path class="cls-18" d="M238.08,130.84H237c0-2.69-.07-4.55-.17-5.59,1.23,0,3.16.1,5.78.17,2.13,0,3.55.07,4.26.07s2.54,0,5.32-.1c2,0,3.48-.09,4.4-.14-.13,1.26-.22,3.13-.26,5.59h-1.09l-.13-1.62c-.09-1-.15-1.54-.19-1.67a.56.56,0,0,0-.14-.29.73.73,0,0,0-.28-.13c-.16,0-.72-.08-1.69-.14s-1.73-.08-2.3-.08h-2.06c-.11,1.08-.17,2.54-.17,4.37v9.88c0,1.53,0,3,.05,4.48a5.49,5.49,0,0,0,.25,1.91,1.11,1.11,0,0,0,.63.44,11.37,11.37,0,0,0,2.44.18v1.08c-2-.09-3.53-.13-4.55-.13-.44,0-2.19,0-5.27.13v-1.08a11.57,11.57,0,0,0,2.45-.18,1,1,0,0,0,.59-.39,3.87,3.87,0,0,0,.27-1.64c0-.24,0-1.84.07-4.8v-9.85c0-.47,0-1,0-1.55l-.1-2.85h-2.52a26.38,26.38,0,0,0-3.46.17.71.71,0,0,0-.53.22,6.14,6.14,0,0,0-.33,1.84Z"/><path class="cls-18" d="M258.53,149.25v-1.06a6.82,6.82,0,0,0,2.33-.27.67.67,0,0,0,.34-.32,6.27,6.27,0,0,0,.24-1.78c.07-1.48.1-2.77.1-3.85v-8.63c0-1.53,0-3-.05-4.49a5.17,5.17,0,0,0-.25-1.9,1.13,1.13,0,0,0-.62-.44,12.22,12.22,0,0,0-2.44-.18v-1.08l4.81.1,5.1-.08c2.45,0,4.22,0,5.32,0a26.25,26.25,0,0,1,3.16.18,13.84,13.84,0,0,0-.37,1.68q0,.15-.3,3.51h-1.07a17.92,17.92,0,0,0-.22-3.14,7.64,7.64,0,0,0-2-.53,32,32,0,0,0-3.78-.23l-1.81.06-2,.12c-.05,1.25-.08,2.42-.1,3.52l-.07,5.71c1.32.06,2.53.1,3.63.1a25.83,25.83,0,0,0,3.43-.19,1,1,0,0,0,.69-.27,4.08,4.08,0,0,0,.27-1.38l.1-1.19h1v.32l-.09,3.52.09,3.93h-1.18l-.06-1.15a3.83,3.83,0,0,0-.22-1.55,1.13,1.13,0,0,0-.74-.42,21.46,21.46,0,0,0-3.73-.2c-.76,0-1.82,0-3.21.08-.06,1.13-.08,2.8-.08,5s0,3.66.08,4.74c1.62.13,3.44.19,5.46.19a23.42,23.42,0,0,0,3.05-.14,7.35,7.35,0,0,0,1.69-.45,10.36,10.36,0,0,0,.41-1.42c.25-1,.41-1.76.49-2.26H277a46.36,46.36,0,0,0-.44,5.65,23.57,23.57,0,0,1-3.53.22L263,149.12Z"/><path class="cls-18" d="M279.22,126.33v-1.08l2,0,3.25.09c.64,0,1.64,0,3-.07,1.75-.07,2.77-.1,3.06-.1a14.11,14.11,0,0,1,4.7.57,4.66,4.66,0,0,1,2.29,1.87,5.19,5.19,0,0,1,.81,2.81,5.91,5.91,0,0,1-.76,2.82,6.31,6.31,0,0,1-2.21,2.33,11.47,11.47,0,0,1-3.75,1.44c.28.39.94,1.27,2,2.63l4.26,5.61c1.21,1.57,1.92,2.44,2.12,2.62a1.19,1.19,0,0,0,.31.17,4.89,4.89,0,0,0,1.11.08v1.08c-.85-.06-1.6-.1-2.24-.1s-1.48,0-2.45.1c-.74-.84-2-2.49-3.68-4.95-1-1.36-1.81-2.5-2.54-3.41-1.18-1.51-2.31-2.87-3.38-4.1l.17-.51c.59,0,1,.05,1.34.05a6.67,6.67,0,0,0,4.66-1.45,4.94,4.94,0,0,0,1.58-3.83,4.23,4.23,0,0,0-1.36-3.31,6.07,6.07,0,0,0-4.14-1.22A11.28,11.28,0,0,0,286,127c-.05.61-.08,1.18-.1,1.71,0,.16-.06,1.79-.12,4.91v7.5c0,1.53,0,3,.06,4.48a5.45,5.45,0,0,0,.23,1.91,1.1,1.1,0,0,0,.64.44,11.4,11.4,0,0,0,2.43.18v1.08c-1.6-.09-3.07-.13-4.41-.13-1.08,0-2.9,0-5.46.13v-1.08a11.6,11.6,0,0,0,2.44-.18,1.12,1.12,0,0,0,.61-.39,4.6,4.6,0,0,0,.25-1.64c0-.24,0-1.84.07-4.8v-7.82c0-1.53,0-3-.06-4.49a5.27,5.27,0,0,0-.24-1.9,1.17,1.17,0,0,0-.62-.44A12.35,12.35,0,0,0,279.22,126.33Z"/><path class="cls-18" d="M302.31,126.33v-1.08c1.72.07,3.17.1,4.36.1.85,0,2.36,0,4.55-.06s3.66-.07,4.42-.07l2.26,0c.68,0,1.29.05,1.85.1a22.82,22.82,0,0,0-.55,5.11h-1.06a20.14,20.14,0,0,0-.42-3.14,10.67,10.67,0,0,0-2.17-.45,29.08,29.08,0,0,0-3-.14,33.28,33.28,0,0,0-3.53.2c-.07.61-.11,1.18-.13,1.71,0,.3,0,1.59-.09,3.87v3.75c1.26,0,2.38.05,3.35.05a20.74,20.74,0,0,0,3.42-.22,1,1,0,0,0,.64-.28,5,5,0,0,0,.31-1.43l.14-1h1.06l-.12,3.85.12,4.13h-1.06l-.12-1.08a14.56,14.56,0,0,0-.27-2,1,1,0,0,0-.65-.36,26.38,26.38,0,0,0-4.35-.22c-.8,0-1.62,0-2.47.07v3.41c0,1.53,0,3,.07,4.48a5.2,5.2,0,0,0,.23,1.91,1.11,1.11,0,0,0,.63.44,11.4,11.4,0,0,0,2.43.18v1.08c-1.43-.09-2.85-.13-4.27-.13-1.27,0-3.13,0-5.58.13v-1.08a11.6,11.6,0,0,0,2.44-.18,1.12,1.12,0,0,0,.61-.39,4.6,4.6,0,0,0,.25-1.64c0-.24,0-1.84.07-4.8v-7.82c0-1.53,0-3-.06-4.49a5.27,5.27,0,0,0-.24-1.9,1.17,1.17,0,0,0-.62-.44A12.35,12.35,0,0,0,302.31,126.33Z"/><path class="cls-18" d="M323,149.25v-.87a5.58,5.58,0,0,0,1.34-.78.86.86,0,0,0,.24-.39,9.25,9.25,0,0,0,.2-2c0-1.54.07-2.46.07-2.75v-9.09c0-1.53,0-3-.05-4.49a5.42,5.42,0,0,0-.25-1.9,1.17,1.17,0,0,0-.62-.44,12.22,12.22,0,0,0-2.44-.18v-1.08c2.74.09,4.44.14,5.1.14s2.33,0,4.84-.14v1.08a12.22,12.22,0,0,0-2.44.18,1.15,1.15,0,0,0-.6.4,4.33,4.33,0,0,0-.25,1.64c0,.22,0,1.82-.07,4.79v11.35c0,1.19,0,2.15.07,2.89,1.28.08,2.56.12,3.82.12a24.73,24.73,0,0,0,6.67-.61,7.49,7.49,0,0,0,.39-1.16l.67-2.81h1.14c-.25,1.68-.5,3.65-.73,5.91a10.11,10.11,0,0,1-1.1.17c-.59,0-1.49.05-2.7.05l-10-.13C325.17,149.12,324.07,149.16,323,149.25Z"/><path class="cls-18" d="M339.15,126.74v-1l4.07-.8a3.32,3.32,0,0,1,.93.45,10,10,0,0,1,1.07,1.29A43,43,0,0,1,348,131c1,1.85,2.16,4,3.34,6.33,1.2-1.83,2.42-3.83,3.67-6l3.59-6.13h2.59v.46q-.93,1-3.41,4.47c-1,1.33-2.2,3.26-3.74,5.8a25.72,25.72,0,0,0-1.62,2.88,3.11,3.11,0,0,0-.18,1v1.3c0,1.53,0,3,0,4.48a5.34,5.34,0,0,0,.24,1.91,1.11,1.11,0,0,0,.63.44,11.45,11.45,0,0,0,2.44.18v1.08c-1.84-.09-3.43-.13-4.77-.13s-3,0-5.08.13v-1.08a11.4,11.4,0,0,0,2.43-.18,1,1,0,0,0,.59-.39A3.87,3.87,0,0,0,349,146c0-.24,0-1.84.07-4.8v-2c-.24-.51-.47-1-.69-1.37s-.73-1.25-1.72-2.91l-1.12-1.82c-.88-1.44-1.53-2.47-2-3.07a16.27,16.27,0,0,0-2-2.52,2.52,2.52,0,0,0-.92-.59A4.65,4.65,0,0,0,339.15,126.74Z"/><path class="cls-18" d="M205.32,174c-1,.71-1.57,1.13-1.76,1.28s-.87.69-1.76,1.42a8,8,0,0,1-1.44.14,7.88,7.88,0,0,1-3.06-.53,15.79,15.79,0,0,1-4.41-2.65,18.78,18.78,0,0,1-4.37,2.55,11.75,11.75,0,0,1-4,.65,9,9,0,0,1-4.65-1.13,7.16,7.16,0,0,1-2.85-3.07,8.68,8.68,0,0,1-1-3.9,8.09,8.09,0,0,1,1.6-5,14.82,14.82,0,0,1,4.76-3.88,14,14,0,0,1-1.21-5.36,5.89,5.89,0,0,1,.48-2.33,4.21,4.21,0,0,1,.56-1.08c.15-.19.86-.82,2.11-1.9a9.13,9.13,0,0,1,1.79-1.25,4.29,4.29,0,0,1,1.88-.41,3.62,3.62,0,0,1,2.72,1,3.87,3.87,0,0,1,1,2.82,7.39,7.39,0,0,1-1.38,4,16.3,16.3,0,0,1-4.51,4.21,34.77,34.77,0,0,0,3.86,5.82,31.15,31.15,0,0,0,4.52,4.73,7.31,7.31,0,0,0,2.07-4.92,5.09,5.09,0,0,0-.45-2.37,1.2,1.2,0,0,0-.85-.65,26.18,26.18,0,0,0-3.22-.14l-.18-.26,1.32-1.93a25.54,25.54,0,0,0,3.32.18c.85,0,2.51,0,5-.14.69,0,1.91,0,3.66,0a21.14,21.14,0,0,0-.46,2.84,31.5,31.5,0,0,0-5.81-.41,7.07,7.07,0,0,1,.24,1.76,8.13,8.13,0,0,1-.8,3.52,13.72,13.72,0,0,1-2.58,3.51,12.44,12.44,0,0,0,7.27,2.65,2.92,2.92,0,0,0,.94-.13,10.68,10.68,0,0,0,1.41-.7Zm-13.75-1.37c-1.81-2-3-3.31-3.68-4.09-.89-1.07-1.71-2.14-2.44-3.2s-1.53-2.35-2.38-3.85a9.44,9.44,0,0,0-2.65,2.7,6.13,6.13,0,0,0-.81,3.17,7.23,7.23,0,0,0,.95,3.53,6.82,6.82,0,0,0,2.56,2.68,6.57,6.57,0,0,0,3.39.94A8.35,8.35,0,0,0,191.57,172.62Zm-6.42-14.38a10.55,10.55,0,0,0,2.83-2.88,5.59,5.59,0,0,0,1-2.89,2.75,2.75,0,0,0-.67-1.91,2,2,0,0,0-1.52-.76,2.79,2.79,0,0,0-1.37.35,2.28,2.28,0,0,0-1,1.14,5.12,5.12,0,0,0-.34,2.05A15.87,15.87,0,0,0,185.15,158.24Z"/><path class="cls-18" d="M235.61,173.26l-.66,1.57a17.54,17.54,0,0,1-3.87,1.45,17.75,17.75,0,0,1-4.12.45,17.15,17.15,0,0,1-4.86-.66,12.58,12.58,0,0,1-3.93-1.89,11.49,11.49,0,0,1-2.74-2.74,12.09,12.09,0,0,1-1.63-3.3,13.1,13.1,0,0,1-.55-3.91A11.76,11.76,0,0,1,217,155.3q3.76-3.54,10.27-3.54a20.88,20.88,0,0,1,2.84.18,27.57,27.57,0,0,1,3.19.67c1.26.34,2,.53,2.31.59a11.43,11.43,0,0,0-.56,1.82,26.19,26.19,0,0,0-.37,3.33h-1.06l0-2a3,3,0,0,0-1.83-2.47,11.54,11.54,0,0,0-4.88-.81,12.91,12.91,0,0,0-4.07.62,7.69,7.69,0,0,0-2.94,1.84,9.66,9.66,0,0,0-2.09,3.19,12.82,12.82,0,0,0-.83,4.86,10.74,10.74,0,0,0,11.39,11.35,13.78,13.78,0,0,0,4.29-.65,9.92,9.92,0,0,0,2.68-1.38Z"/><path class="cls-18" d="M237.4,164.41a14.78,14.78,0,0,1,.8-4.93,10.57,10.57,0,0,1,2.66-4.07,12.72,12.72,0,0,1,4.21-2.73,14.67,14.67,0,0,1,5.37-.92,15.32,15.32,0,0,1,5.07.79,11,11,0,0,1,3.74,2.07,10.81,10.81,0,0,1,2.3,2.83,11,11,0,0,1,1,2.71,14.06,14.06,0,0,1,.38,3.32,12.78,12.78,0,0,1-3.83,9.48,13.17,13.17,0,0,1-9.65,3.78,13.85,13.85,0,0,1-4.95-.86,10.09,10.09,0,0,1-3.89-2.56,11.17,11.17,0,0,1-2.41-4.12A14.77,14.77,0,0,1,237.4,164.41Zm3.51-1.4a17.39,17.39,0,0,0,.32,3.26,16.51,16.51,0,0,0,.81,2.86,10.8,10.8,0,0,0,2.12,3.4,8.42,8.42,0,0,0,2.93,2,9.5,9.5,0,0,0,3.57.65,8.43,8.43,0,0,0,4.73-1.33,8,8,0,0,0,3-3.73,14.54,14.54,0,0,0,1-5.55,16.59,16.59,0,0,0-.7-4.95,10.92,10.92,0,0,0-1.17-2.51,8.55,8.55,0,0,0-1.73-2,8.45,8.45,0,0,0-2.61-1.41,10.25,10.25,0,0,0-3.46-.57,9.13,9.13,0,0,0-4.72,1.2,7.43,7.43,0,0,0-3,3.47A12.26,12.26,0,0,0,240.91,163Z"/><path class="cls-18" d="M265,172.39a1.9,1.9,0,0,1,1.43.59,2,2,0,0,1,0,2.85,2,2,0,1,1-1.42-3.44Z"/></g></g></svg>